# xmcd CD database file
#
# Track frame offsets:
#	150
#	21075
#	55500
#	72675
#	100125
#	125550
#	145125
#	169125
#	210300
#	236925
#	250200
#	277725
#
# Disc length: 3931 seconds
#
# Revision: 0
# Processed by: cddbd v1.5.2PL0 Copyright (c) Steve Scherf et al.
# Submitted via: CDex 1.51
#
DISCID=aa0f590c
DTITLE=Artisti Vari - A story of Jazz  Other notes  Cd4
DYEAR=1900
DGENRE=Jazz
TTITLE0=Us3 - Cantaloop
TTITLE1=DJMadlib - Stepping into tomorrow
TTITLE2=Horace Silver - Won't to open up your senses
TTITLE3=Marc Moulin - Silver
TTITLE4=Nicola Conte - Kind of sunshine
TTITLE5=Medeski, Martin and Wood - Anonymus skulls
TTITLE6=Soulive - Romantic
TTITLE7=Jason Moran - Planet rock
TTITLE8=Angela McCluskey - Don't explain
TTITLE9=Raul Midon - Devil may care
TTITLE10=John Scofield - Message to my friend
TTITLE11=Lou Rawls - The girl from Ipanema
EXTD=
EXTT0=
EXTT1=
EXTT2=
EXTT3=
EXTT4=
EXTT5=
EXTT6=
EXTT7=
EXTT8=
EXTT9=
EXTT10=
EXTT11=
PLAYORDER=
